<?xml version="1.0" encoding="UTF-8"?><svg xmlns="http://www.w3.org/2000/svg" xmlns:xlink="http://www.w3.org/1999/xlink" viewBox="0 0 121.15 149.12"><defs><style>.l{fill:#fff;}.m{letter-spacing:-.06em;}.n{letter-spacing:0em;}.o{fill:#008226;font-family:TypoldCondensed-Light, Typold Condensed;font-size:27px;}.p{fill:url(#f);}.q{letter-spacing:0em;}.r{fill:#b30401;font-family:TypoldCondensed-Bold, Typold Condensed;font-size:36.76px;}.s{fill:url(#g);}.t{fill:url(#i);}.u{fill:url(#h);}.v{fill:url(#d);}.w{fill:url(#e);}.x{fill:url(#j);}.y{fill:url(#k);}</style><radialGradient id="d" cx="45.53" cy="7.87" fx="45.53" fy="7.87" r="15.85" gradientTransform="matrix(1, 0, 0, 1, 0, 0)" gradientUnits="userSpaceOnUse"><stop offset="0" stop-color="#b30401"/><stop offset="1" stop-color="#f00602"/></radialGradient><radialGradient id="e" cx="80.5" cy="7.87" fx="80.5" fy="7.87" r="15.7" gradientTransform="matrix(1, 0, 0, 1, 0, 0)" gradientUnits="userSpaceOnUse"><stop offset="0" stop-color="#008226"/><stop offset="1" stop-color="#8bc540"/></radialGradient><linearGradient id="f" x1="23.78" y1="50.7" x2="60.75" y2="50.7" gradientTransform="matrix(1, 0, 0, 1, 0, 0)" gradientUnits="userSpaceOnUse"><stop offset="0" stop-color="#8bc540"/><stop offset="1" stop-color="#008226"/></linearGradient><linearGradient id="g" x1="24.38" y1="49.03" x2="75.5" y2="49.03" gradientTransform="matrix(1, 0, 0, 1, 0, 0)" gradientUnits="userSpaceOnUse"><stop offset="0" stop-color="#008226"/><stop offset="1" stop-color="#8bc540"/></linearGradient><linearGradient id="h" x1="37.03" y1="52.23" x2="75.5" y2="52.23" gradientTransform="matrix(1, 0, 0, 1, 0, 0)" gradientUnits="userSpaceOnUse"><stop offset="0" stop-color="#99832f"/><stop offset="1" stop-color="#8bc540"/></linearGradient><linearGradient id="i" x1="37.02" y1="50.7" x2="96.77" y2="50.7" gradientTransform="matrix(1, 0, 0, 1, 0, 0)" gradientUnits="userSpaceOnUse"><stop offset="0" stop-color="#f00602"/><stop offset="1" stop-color="#b30401"/></linearGradient><linearGradient id="j" x1="46.45" y1="53.18" x2="96.77" y2="53.18" gradientTransform="matrix(1, 0, 0, 1, 0, 0)" gradientUnits="userSpaceOnUse"><stop offset="0" stop-color="#b30401"/><stop offset="1" stop-color="#f00602"/></linearGradient><linearGradient id="k" x1="46.45" y1="62.01" x2="75.85" y2="62.01" gradientTransform="matrix(1, 0, 0, 1, 0, 0)" gradientUnits="userSpaceOnUse"><stop offset="0" stop-color="#f00602"/><stop offset="1" stop-color="#af0401"/></linearGradient></defs><g id="a"/><g id="b"><g id="c"><g><g><circle class="v" cx="42.7" cy="11.75" r="11.75"/><circle class="w" cx="78.45" cy="11.75" r="11.75"/><path class="p" d="M79.58,22.28c-6.25,0-10.69,2.63-13.7,5.55s-7.66,2.86-10.6,0-7.46-5.55-13.7-5.55c-14.08,0-38,25.74,19.01,56.82,57-31.08,33.09-56.82,19.01-56.82Z"/><path class="s" d="M59.91,50.56c-22.42,9.05-27.18-1.09-19.42-6.33h0s-5.47-1.85-8.7-5.73c-3.02-3.62-3.9-9.21-1.72-11.24h0c-8.33,7.78-10.88,23.97,16.38,43.16h0c1.76,1.22,8.68-.74,11.46-1.91,27.36-11.5,18.64-24.66,2-17.95Z"/><path class="l" d="M40.49,44.22c-6.17-2.01-12.36-7.38-11.62-14.43,.14-.94,.49-1.88,1.19-2.54-.68,.68-.99,1.62-1.09,2.55-.61,6.99,5.5,12.18,11.51,14.42h0Z"/><path class="u" d="M59.91,52.11c8.42-3.4,16.1-1.29,15.52,2.29,.81-5.06-6.08-7.66-15.52-3.85-14.91,6.02-22.01,3.55-22.81-.32-.9,4.65,5.97,8.67,22.81,1.87Z"/><path class="t" d="M59.91,50.56c16.64-6.72,25.35,6.45-2,17.95-2.78,1.17-9.7,3.13-11.46,1.91,4.03,2.84,8.71,5.74,14.13,8.69,57-31.08,33.09-56.82,19.01-56.82-6.25,0-10.69,2.63-13.7,5.55,0,0-7.69,7.47-23.88,15.51-9.77,4.85-5.83,16.79,17.91,7.21Z"/><path class="x" d="M91.08,27.25h0c2.18,2.03,1.02,7.4-1.72,11.24-5.29,7.41-18.15,10.58-18.15,10.58h0c7.41,1.85,6.58,11.08-13.3,19.43-2.78,1.17-9.7,3.13-11.46,1.91,4.03,2.84,8.71,5.74,14.13,8.69,42.02-22.91,40.07-42.92,30.5-51.86Z"/><path class="y" d="M57.91,68.5c-2.78,1.17-9.7,3.13-11.46,1.91,.84,.59,1.72,1.19,2.62,1.79,2.78,.04,7.55-1.36,9.74-2.29,15.1-6.4,18.88-13.97,16.29-18.09,1.83,3.79-2.42,10.48-17.19,16.68Z"/><path class="l" d="M91.08,27.25c2.01,2.15,1.08,5.52,.16,7.97-2.09,5.33-7.12,8.75-12.14,11.04-2.54,1.17-5.18,2.12-7.89,2.8,2.69-.76,5.31-1.75,7.83-2.93,4.96-2.35,9.93-5.71,12.06-10.97,.93-2.43,1.91-5.73-.03-7.92h0Z"/></g><text transform="translate(0 116.03)"><tspan class="r"><tspan x="0" y="0">ME</tspan><tspan class="q" x="52.34" y="0">R</tspan><tspan class="n" x="74.69" y="0">VE</tspan></tspan><tspan class="o"><tspan x=".53" y="26">CARE L</tspan><tspan class="m" x="89.6" y="26">L</tspan><tspan x="102.42" y="26">C</tspan></tspan></text></g></g></g></svg>